<svg width="9" height="13" viewBox="0 0 9 13" fill="none" xmlns="http://www.w3.org/2000/svg">
<path d="M4.10852 7.67908H4.31405C4.95022 7.67908 5.51788 7.53227 6.01703 7.23865C6.52597 6.94503 6.91746 6.54865 7.1915 6.0495C7.47533 5.54057 7.61725 4.98269 7.61725 4.37588C7.61725 3.77886 7.47044 3.24057 7.17682 2.76099C6.8832 2.27163 6.48193 1.88503 5.97299 1.6012C5.46405 1.31737 4.89639 1.17546 4.27001 1.17546C3.64363 1.17546 3.08576 1.31248 2.59639 1.58652C2.11682 1.85078 1.73512 2.22759 1.45129 2.71695C1.17724 3.20631 1.03044 3.77886 1.01086 4.43461H0.511713C0.550861 3.71035 0.731925 3.06929 1.0549 2.51142C1.37788 1.95354 1.81831 1.52291 2.37618 1.2195C2.94384 0.90631 3.5849 0.749715 4.29937 0.749715C5.00405 0.749715 5.64512 0.916098 6.22256 1.24886C6.80001 1.57184 7.25512 2.00737 7.58788 2.55546C7.92065 3.09376 8.08703 3.6761 8.08703 4.30248C8.08703 4.9778 7.94022 5.59929 7.64661 6.16695C7.35299 6.72482 6.93703 7.17993 6.39873 7.53227C5.87022 7.87482 5.26341 8.06567 4.57831 8.10482V10.5272H4.10852V7.67908ZM4.32873 12.0687C4.19171 12.0687 4.06937 12.0197 3.96171 11.9218C3.86384 11.824 3.8149 11.7016 3.8149 11.5548C3.8149 11.4178 3.86384 11.3004 3.96171 11.2025C4.06937 11.1046 4.19171 11.0557 4.32873 11.0557C4.46576 11.0557 4.5832 11.1046 4.68107 11.2025C4.78873 11.3004 4.84256 11.4178 4.84256 11.5548C4.84256 11.7016 4.78873 11.824 4.68107 11.9218C4.5832 12.0197 4.46576 12.0687 4.32873 12.0687Z" fill="white"/>
</svg>
