<?xml version="1.0" encoding="utf-8"?>
<!-- Generator: Adobe Illustrator 21.0.0, SVG Export Plug-In . SVG Version: 6.00 Build 0)  -->
<svg version="1.1" id="Слой_1" xmlns="http://www.w3.org/2000/svg" xmlns:xlink="http://www.w3.org/1999/xlink" x="0px" y="0px"
	 viewBox="0 0 35 34" style="enable-background:new 0 0 35 34;" xml:space="preserve">
<path d="M35,31.6L32.7,9c-0.1-0.5-0.3-1-0.6-1.4c-0.4-0.4-0.8-0.5-1.3-0.5h-6c-0.2-1.9-1-3.7-2.3-5c-1.3-1.3-3-2-4.8-2
	S14,0.7,12.7,2c-1.3,1.3-2.2,3.1-2.3,5h-6c-0.5,0-1,0.2-1.3,0.5C2.6,7.9,2.4,8.4,2.3,9L0,31.6c0,0.3,0,0.6,0.1,0.9
	c0.1,0.3,0.2,0.5,0.4,0.8c0.2,0.2,0.4,0.4,0.7,0.5C1.4,33.9,1.7,34,2,34H33c0.3,0,0.5-0.1,0.8-0.2s0.5-0.3,0.7-0.5
	c0.2-0.2,0.3-0.5,0.4-0.8C35,32.2,35,31.9,35,31.6z M17.5,1.4c1.4,0,2.8,0.6,3.9,1.6c1.1,1,1.8,2.5,1.9,4H11.6c0.2-1.6,0.9-3,1.9-4
	C14.7,2,16.1,1.4,17.5,1.4z M33.5,32.4c-0.1,0.1-0.1,0.1-0.2,0.2c-0.1,0-0.2,0.1-0.3,0.1H2c-0.1,0-0.2,0-0.3-0.1
	c-0.1,0-0.2-0.1-0.2-0.2c-0.1-0.1-0.1-0.2-0.1-0.3c0-0.1,0-0.2,0-0.3L3.6,9.1c0-0.2,0.1-0.3,0.2-0.5C4,8.5,4.1,8.5,4.3,8.5h6v5
	c0,0.2,0.1,0.4,0.2,0.5c0.1,0.1,0.3,0.2,0.5,0.2s0.3-0.1,0.5-0.2c0.1-0.1,0.2-0.3,0.2-0.5v-5h11.8v5c0,0.2,0.1,0.4,0.2,0.5
	c0.1,0.1,0.3,0.2,0.5,0.2c0.2,0,0.3-0.1,0.5-0.2c0.1-0.1,0.2-0.3,0.2-0.5v-5h6c0.2,0,0.3,0.1,0.4,0.2c0.1,0.1,0.2,0.3,0.2,0.5
	l2.3,22.7c0,0.1,0,0.2,0,0.3C33.6,32.2,33.6,32.3,33.5,32.4z"/>
</svg>
