<svg width="57" height="57" viewBox="0 0 57 57" fill="none" xmlns="http://www.w3.org/2000/svg">
<path fill-rule="evenodd" clip-rule="evenodd" d="M55.9204 6.29213C56.2627 5.95029 56.5343 5.54438 56.7197 5.09758C56.9051 4.65078 57.0006 4.17184 57.0009 3.68811C57.0012 3.20437 56.9062 2.72532 56.7214 2.27829C56.5366 1.83127 56.2655 1.42502 55.9236 1.08276C55.5818 0.740498 55.1759 0.468919 54.7291 0.283527C54.2823 0.0981346 53.8034 0.00256149 53.3196 0.00226417C52.8359 0.00196685 52.3568 0.0969511 51.9098 0.281794C51.4628 0.466636 51.0565 0.737717 50.7143 1.07956L28.5 23.2938L6.29213 1.07956C5.6009 0.388328 4.66339 -7.28329e-09 3.68585 0C2.7083 7.28329e-09 1.77079 0.388328 1.07956 1.07956C0.388328 1.77079 7.28329e-09 2.7083 0 3.68585C-7.28329e-09 4.66339 0.388328 5.6009 1.07956 6.29213L23.2938 28.5L1.07956 50.7079C0.737296 51.0501 0.465799 51.4565 0.280568 51.9036C0.0953367 52.3508 0 52.8301 0 53.3141C0 53.7982 0.0953367 54.2775 0.280568 54.7247C0.465799 55.1718 0.737296 55.5782 1.07956 55.9204C1.77079 56.6117 2.7083 57 3.68585 57C4.16988 57 4.64917 56.9047 5.09636 56.7194C5.54354 56.5342 5.94987 56.2627 6.29213 55.9204L28.5 33.7062L50.7143 55.9204C51.4055 56.6108 52.3427 56.9983 53.3196 56.9977C54.2966 56.9971 55.2333 56.6085 55.9236 55.9172C56.614 55.226 57.0015 54.2888 57.0009 53.3119C57.0003 52.3349 56.6117 51.3982 55.9204 50.7079L33.7062 28.5L55.9204 6.29213Z" fill="black" fill-opacity="0.68"/>
</svg>
