<?xml version="1.0" encoding="utf-8"?>
<!-- Generator: Adobe Illustrator 21.0.0, SVG Export Plug-In . SVG Version: 6.00 Build 0)  -->
<svg version="1.1" id="Слой_1" xmlns="http://www.w3.org/2000/svg" xmlns:xlink="http://www.w3.org/1999/xlink" x="0px" y="0px"
	 viewBox="0 0 34 33" style="enable-background:new 0 0 34 33;" xml:space="preserve">
<path d="M17,33c-0.1,0-0.2,0-0.3-0.1c-3-1.9-5.7-4.1-8.3-6.6C2.8,20.8,0,15.3,0,10.1C0,7.9,0.7,5.7,1.9,4s2.9-3,4.8-3.6
	s4-0.5,5.8,0.3C14.4,1.5,16,3,17,4.9c1-1.9,2.6-3.3,4.5-4.2c1.9-0.8,3.9-0.9,5.8-0.3C29.2,1,30.9,2.2,32.1,4
	c1.2,1.7,1.9,3.9,1.9,6.1c0,5.3-2.8,10.7-8.4,16.2c-2.6,2.5-5.3,4.7-8.3,6.6C17.2,33,17.1,33,17,33z"/>
</svg>
