<?xml version="1.0" encoding="utf-8"?>
<!-- Generator: Adobe Illustrator 21.0.0, SVG Export Plug-In . SVG Version: 6.00 Build 0)  -->
<svg version="1.1" id="Слой_1" xmlns="http://www.w3.org/2000/svg" xmlns:xlink="http://www.w3.org/1999/xlink" x="0px" y="0px"
	 viewBox="0 0 34 33" style="enable-background:new 0 0 34 33;" xml:space="preserve">
<style type="text/css">
	.st0{fill:#FFFFFF;}
</style>
<path class="st0" d="M16.9,33.1c-0.1,0-0.2,0-0.3-0.1c-3-1.9-5.7-4.1-8.3-6.6c-5.6-5.5-8.4-11-8.4-16.2c0-2.2,0.7-4.4,1.9-6.1
	s2.9-3,4.8-3.6s4-0.5,5.8,0.3c1.9,0.8,3.5,2.3,4.5,4.2c1-1.9,2.6-3.3,4.5-4.2c1.9-0.8,3.9-0.9,5.8-0.3c1.9,0.6,3.6,1.8,4.8,3.6
	c1.2,1.7,1.9,3.9,1.9,6.1c0,5.3-2.8,10.7-8.4,16.2c-2.6,2.5-5.3,4.7-8.3,6.6C17.1,33.1,17,33.1,16.9,33.1z"/>
</svg>
