<?xml version="1.0" encoding="utf-8"?>
<!-- Generator: Adobe Illustrator 21.0.0, SVG Export Plug-In . SVG Version: 6.00 Build 0)  -->
<svg version="1.1" id="Слой_1" xmlns="http://www.w3.org/2000/svg" xmlns:xlink="http://www.w3.org/1999/xlink" x="0px" y="0px"
	 viewBox="0 0 34 33" style="enable-background:new 0 0 34 33;" xml:space="preserve">
<style type="text/css">
	.st0{fill:#FFFFFF;}
</style>
<path class="st0" d="M17,33c-0.1,0-0.2,0-0.3-0.1c-3-1.9-5.7-4.1-8.3-6.6C2.8,20.8,0,15.3,0,10.1C0,7.9,0.7,5.7,1.9,4
	c1.2-1.7,2.9-3,4.8-3.6c1.9-0.6,4-0.5,5.8,0.3C14.4,1.5,16,3,17,4.9c1-1.9,2.6-3.3,4.5-4.2c1.9-0.8,3.9-0.9,5.8-0.3
	C29.2,1,30.9,2.2,32.1,4c1.2,1.7,1.9,3.9,1.9,6.1c0,5.3-2.8,10.7-8.4,16.2c-2.6,2.5-5.3,4.7-8.3,6.6C17.2,33,17.1,33,17,33z
	 M9.2,1.4C7.1,1.4,5.1,2.4,3.6,4c-1.5,1.6-2.3,3.8-2.3,6.1C1.3,20.8,14.7,30,17,31.5c2.3-1.5,15.7-10.7,15.7-21.4
	c0-2-0.6-3.9-1.8-5.5c-1.1-1.5-2.7-2.6-4.5-3s-3.6-0.1-5.2,0.8c-1.6,0.9-2.9,2.4-3.6,4.3c0,0.1-0.1,0.2-0.2,0.3
	c-0.1,0.1-0.2,0.1-0.4,0.1s-0.3,0-0.4-0.1c-0.1-0.1-0.2-0.2-0.2-0.3c-0.6-1.6-1.6-2.9-2.9-3.8C12.2,1.9,10.7,1.4,9.2,1.4z"/>
</svg>
