<svg width="64" height="39" viewBox="0 0 64 39" fill="none" xmlns="http://www.w3.org/2000/svg">
<path d="M30.0965 34.9977L30.5631 35.3745C27.3999 37.4848 23.6805 38.6068 19.878 38.5978C9.21038 38.5978 0.567383 29.9665 0.567383 19.299C0.567383 8.64114 9.21038 9.08814e-05 19.8662 9.08814e-05C23.8236 9.08814e-05 27.5038 1.1793 30.5553 3.21169C30.405 3.33656 30.2616 3.46951 30.1258 3.60996C25.5632 7.55369 22.9392 13.2799 22.9392 19.299C22.9392 25.318 25.5534 31.0442 30.0985 34.9977H30.0965ZM43.7433 9.08814e-05C39.9409 -0.0116068 36.2206 1.10618 33.0543 3.21169C33.2085 3.34445 33.3608 3.47721 33.4838 3.60996C35.7376 5.55603 37.5459 7.9645 38.786 10.6717C40.026 13.3789 40.6687 16.3213 40.6704 19.299C40.6704 25.3102 38.0562 31.0345 33.5111 34.9977C33.3565 35.1244 33.2009 35.25 33.0445 35.3745C36.2072 37.4861 39.9269 38.6082 43.7297 38.5978C54.3973 38.5978 63.0403 29.9665 63.0403 19.299C63.0403 8.64114 54.3992 9.08814e-05 43.7433 9.08814e-05ZM31.8048 4.13905C29.5058 5.94098 27.6472 8.24267 26.3699 10.8696C25.0926 13.4966 24.4302 16.3799 24.4328 19.3009C24.429 22.2235 25.0908 25.1086 26.3682 27.7374C27.6455 30.3661 29.5047 32.6694 31.8048 34.4725C32.0606 34.2792 32.2948 34.0762 32.5369 33.8634C34.6239 32.0547 36.297 29.818 37.4427 27.3052C38.5885 24.7925 39.1799 22.0625 39.1768 19.3009C39.1791 16.3799 38.5166 13.4967 37.2393 10.8698C35.962 8.24291 34.1036 5.94117 31.8048 4.13905Z" fill="black"/>
</svg>
