<svg width="17" height="20" viewBox="0 0 17 20" fill="none" xmlns="http://www.w3.org/2000/svg">
<mask id="path-1-inside-1_89_9268" fill="white">
<path d="M10.4348 0H3.91304C3.79773 0 3.68714 0.0458074 3.60561 0.127345C3.52407 0.208883 3.47826 0.319471 3.47826 0.434783V11.3043H0.434783C0.319471 11.3043 0.208883 11.3502 0.127345 11.4317C0.0458074 11.5132 0 11.6238 0 11.7391C0 11.8544 0.0458074 11.965 0.127345 12.0466C0.208883 12.1281 0.319471 12.1739 0.434783 12.1739H3.47826V14.7826H0.434783C0.319471 14.7826 0.208883 14.8284 0.127345 14.91C0.0458074 14.9915 0 15.1021 0 15.2174C0 15.3327 0.0458074 15.4433 0.127345 15.5248C0.208883 15.6064 0.319471 15.6522 0.434783 15.6522H3.47826V19.5652C3.47826 19.6805 3.52407 19.7911 3.60561 19.8727C3.68714 19.9542 3.79773 20 3.91304 20C4.02836 20 4.13894 19.9542 4.22048 19.8727C4.30202 19.7911 4.34783 19.6805 4.34783 19.5652V15.6522H10C10.1153 15.6522 10.2259 15.6064 10.3074 15.5248C10.389 15.4433 10.4348 15.3327 10.4348 15.2174C10.4348 15.1021 10.389 14.9915 10.3074 14.91C10.2259 14.8284 10.1153 14.7826 10 14.7826H4.34783V12.1739H10.4348C12.0491 12.1739 13.5974 11.5326 14.7389 10.3911C15.8804 9.24956 16.5217 7.70132 16.5217 6.08696C16.5217 4.4726 15.8804 2.92435 14.7389 1.78283C13.5974 0.641303 12.0491 0 10.4348 0ZM10.4348 11.3043H4.34783V0.869565H10.4348C11.8185 0.869565 13.1456 1.41925 14.124 2.3977C15.1025 3.37615 15.6522 4.70322 15.6522 6.08696C15.6522 7.47069 15.1025 8.79776 14.124 9.77621C13.1456 10.7547 11.8185 11.3043 10.4348 11.3043Z"/>
</mask>
<path d="M10.4348 0H3.91304C3.79773 0 3.68714 0.0458074 3.60561 0.127345C3.52407 0.208883 3.47826 0.319471 3.47826 0.434783V11.3043H0.434783C0.319471 11.3043 0.208883 11.3502 0.127345 11.4317C0.0458074 11.5132 0 11.6238 0 11.7391C0 11.8544 0.0458074 11.965 0.127345 12.0466C0.208883 12.1281 0.319471 12.1739 0.434783 12.1739H3.47826V14.7826H0.434783C0.319471 14.7826 0.208883 14.8284 0.127345 14.91C0.0458074 14.9915 0 15.1021 0 15.2174C0 15.3327 0.0458074 15.4433 0.127345 15.5248C0.208883 15.6064 0.319471 15.6522 0.434783 15.6522H3.47826V19.5652C3.47826 19.6805 3.52407 19.7911 3.60561 19.8727C3.68714 19.9542 3.79773 20 3.91304 20C4.02836 20 4.13894 19.9542 4.22048 19.8727C4.30202 19.7911 4.34783 19.6805 4.34783 19.5652V15.6522H10C10.1153 15.6522 10.2259 15.6064 10.3074 15.5248C10.389 15.4433 10.4348 15.3327 10.4348 15.2174C10.4348 15.1021 10.389 14.9915 10.3074 14.91C10.2259 14.8284 10.1153 14.7826 10 14.7826H4.34783V12.1739H10.4348C12.0491 12.1739 13.5974 11.5326 14.7389 10.3911C15.8804 9.24956 16.5217 7.70132 16.5217 6.08696C16.5217 4.4726 15.8804 2.92435 14.7389 1.78283C13.5974 0.641303 12.0491 0 10.4348 0ZM10.4348 11.3043H4.34783V0.869565H10.4348C11.8185 0.869565 13.1456 1.41925 14.124 2.3977C15.1025 3.37615 15.6522 4.70322 15.6522 6.08696C15.6522 7.47069 15.1025 8.79776 14.124 9.77621C13.1456 10.7547 11.8185 11.3043 10.4348 11.3043Z" fill="black"/>
<path d="M3.47826 11.3043V18.3043H10.4783V11.3043H3.47826ZM3.47826 12.1739H10.4783V5.17391H3.47826V12.1739ZM3.47826 14.7826V21.7826H10.4783V14.7826H3.47826ZM3.47826 15.6522H10.4783V8.65217H3.47826V15.6522ZM4.34783 15.6522V8.65217H-2.65217V15.6522H4.34783ZM4.34783 14.7826H-2.65217V21.7826H4.34783V14.7826ZM4.34783 12.1739V5.17391H-2.65217V12.1739H4.34783ZM10.4348 12.1739V5.17391V12.1739ZM16.5217 6.08696H23.5217H16.5217ZM4.34783 11.3043H-2.65217V18.3043H4.34783V11.3043ZM4.34783 0.869565V-6.13043H-2.65217V0.869565H4.34783ZM10.4348 -7H3.91304V7H10.4348V-7ZM3.91304 -7C1.94122 -7 0.0501518 -6.2167 -1.34414 -4.8224L8.55535 5.07709C7.32413 6.30831 5.65424 7 3.91304 7V-7ZM-1.34414 -4.8224C-2.73845 -3.4281 -3.52174 -1.53703 -3.52174 0.434783H10.4783C10.4783 2.17597 9.78658 3.84586 8.55535 5.07709L-1.34414 -4.8224ZM-3.52174 0.434783V11.3043H10.4783V0.434783H-3.52174ZM3.47826 4.30435H0.434783V18.3043H3.47826V4.30435ZM0.434783 4.30435C-1.53701 4.30435 -3.42809 5.08763 -4.8224 6.48194L5.07709 16.3814C3.84585 17.6127 2.17596 18.3043 0.434783 18.3043V4.30435ZM-4.8224 6.48194C-6.2167 7.87624 -7 9.76731 -7 11.7391H7C7 13.4803 6.30831 15.1502 5.07709 16.3814L-4.8224 6.48194ZM-7 11.7391C-7 13.7109 -6.2167 15.602 -4.8224 16.9963L5.07709 7.09682C6.30831 8.32804 7 9.99793 7 11.7391H-7ZM-4.8224 16.9963C-3.42809 18.3906 -1.53701 19.1739 0.434783 19.1739V5.17391C2.17596 5.17391 3.84585 5.86558 5.07709 7.09682L-4.8224 16.9963ZM0.434783 19.1739H3.47826V5.17391H0.434783V19.1739ZM-3.52174 12.1739V14.7826H10.4783V12.1739H-3.52174ZM3.47826 7.78261H0.434783V21.7826H3.47826V7.78261ZM0.434783 7.78261C-1.53701 7.78261 -3.42809 8.56589 -4.8224 9.96021L5.07709 19.8597C3.84585 21.0909 2.17596 21.7826 0.434783 21.7826V7.78261ZM-4.8224 9.96021C-6.2167 11.3545 -7 13.2456 -7 15.2174H7C7 16.9586 6.30831 18.6285 5.07709 19.8597L-4.8224 9.96021ZM-7 15.2174C-7 17.1892 -6.21669 19.0803 -4.8224 20.4746L5.07709 10.5751C6.3083 11.8063 7 13.4762 7 15.2174H-7ZM-4.8224 20.4746C-3.42812 21.8689 -1.53706 22.6522 0.434783 22.6522V8.65217C2.17601 8.65217 3.84589 9.34388 5.07709 10.5751L-4.8224 20.4746ZM0.434783 22.6522H3.47826V8.65217H0.434783V22.6522ZM-3.52174 15.6522V19.5652H10.4783V15.6522H-3.52174ZM-3.52174 19.5652C-3.52174 21.537 -2.73846 23.4281 -1.34414 24.8224L8.55535 14.9229C9.78659 16.1541 10.4783 17.824 10.4783 19.5652H-3.52174ZM-1.34414 24.8224C0.050176 26.2167 1.94125 27 3.91304 27V13C5.65421 13 7.32411 13.6917 8.55535 14.9229L-1.34414 24.8224ZM3.91304 27C5.88483 27 7.77591 26.2167 9.17023 24.8224L-0.729266 14.9229C0.501977 13.6917 2.17188 13 3.91304 13V27ZM9.17023 24.8224C10.5645 23.4281 11.3478 21.537 11.3478 19.5652H-2.65217C-2.65217 17.824 -1.9605 16.1541 -0.729266 14.9229L9.17023 24.8224ZM11.3478 19.5652V15.6522H-2.65217V19.5652H11.3478ZM4.34783 22.6522H10V8.65217H4.34783V22.6522ZM10 22.6522C11.9718 22.6522 13.8629 21.8689 15.2572 20.4746L5.35769 10.5751C6.5889 9.34387 8.25879 8.65217 10 8.65217V22.6522ZM15.2572 20.4746C16.6515 19.0803 17.4348 17.1892 17.4348 15.2174H3.43478C3.43478 13.4762 4.12646 11.8063 5.35769 10.5751L15.2572 20.4746ZM17.4348 15.2174C17.4348 13.2456 16.6515 11.3545 15.2572 9.96021L5.35769 19.8597C4.12644 18.6285 3.43478 16.9586 3.43478 15.2174H17.4348ZM15.2572 9.96021C13.8629 8.56588 11.9718 7.78261 10 7.78261V21.7826C8.25884 21.7826 6.58894 21.0909 5.35769 19.8597L15.2572 9.96021ZM10 7.78261H4.34783V21.7826H10V7.78261ZM11.3478 14.7826V12.1739H-2.65217V14.7826H11.3478ZM4.34783 19.1739H10.4348V5.17391H4.34783V19.1739ZM10.4348 19.1739C13.9057 19.1739 17.2344 17.7951 19.6887 15.3408L9.78916 5.44134C9.96039 5.27011 10.1926 5.17391 10.4348 5.17391L10.4348 19.1739ZM19.6887 15.3408C22.1429 12.8866 23.5217 9.55784 23.5217 6.08696L9.52174 6.08696C9.52174 5.8448 9.61794 5.61256 9.78916 5.44134L19.6887 15.3408ZM23.5217 6.08696C23.5217 2.61607 22.1429 -0.712642 19.6887 -3.16692L9.78916 6.73258C9.61794 6.56135 9.52174 6.32911 9.52174 6.08696L23.5217 6.08696ZM19.6887 -3.16692C17.2344 -5.6212 13.9057 -7 10.4348 -7L10.4348 7C10.1926 7 9.96039 6.9038 9.78916 6.73258L19.6887 -3.16692ZM10.4348 4.30435H4.34783V18.3043H10.4348V4.30435ZM11.3478 11.3043V0.869565H-2.65217V11.3043H11.3478ZM4.34783 7.86957H10.4348V-6.13043H4.34783V7.86957ZM10.4348 7.86957C9.96201 7.86957 9.50859 7.68176 9.17429 7.34745L19.0738 -2.55204C16.7826 -4.84325 13.675 -6.13043 10.4348 -6.13043L10.4348 7.86957ZM9.17429 7.34745C8.83998 7.01315 8.65217 6.55973 8.65217 6.08696H22.6522C22.6522 2.8467 21.365 -0.260837 19.0738 -2.55204L9.17429 7.34745ZM8.65217 6.08696C8.65217 5.61418 8.83998 5.16077 9.17429 4.82646L19.0738 14.726C21.365 12.4347 22.6522 9.32721 22.6522 6.08696H8.65217ZM9.17429 4.82646C9.50859 4.49216 9.96201 4.30435 10.4348 4.30435V18.3043C13.675 18.3043 16.7826 17.0172 19.0738 14.726L9.17429 4.82646Z" fill="black" mask="url(#path-1-inside-1_89_9268)"/>
</svg>
