<svg width="17" height="20" viewBox="0 0 17 20" fill="none" xmlns="http://www.w3.org/2000/svg">
<mask id="path-1-inside-1_89_10484" fill="white">
<path d="M10.6721 0H4.15035C4.03504 0 3.92445 0.0458074 3.84291 0.127345C3.76137 0.208883 3.71557 0.319471 3.71557 0.434783V11.3043H0.672087C0.556776 11.3043 0.446187 11.3502 0.36465 11.4317C0.283112 11.5132 0.237305 11.6238 0.237305 11.7391C0.237305 11.8544 0.283112 11.965 0.36465 12.0466C0.446187 12.1281 0.556776 12.1739 0.672087 12.1739H3.71557V14.7826H0.672087C0.556776 14.7826 0.446187 14.8284 0.36465 14.91C0.283112 14.9915 0.237305 15.1021 0.237305 15.2174C0.237305 15.3327 0.283112 15.4433 0.36465 15.5248C0.446187 15.6064 0.556776 15.6522 0.672087 15.6522H3.71557V19.5652C3.71557 19.6805 3.76137 19.7911 3.84291 19.8727C3.92445 19.9542 4.03504 20 4.15035 20C4.26566 20 4.37625 19.9542 4.45779 19.8727C4.53932 19.7911 4.58513 19.6805 4.58513 19.5652V15.6522H10.2373C10.3526 15.6522 10.4632 15.6064 10.5447 15.5248C10.6263 15.4433 10.6721 15.3327 10.6721 15.2174C10.6721 15.1021 10.6263 14.9915 10.5447 14.91C10.4632 14.8284 10.3526 14.7826 10.2373 14.7826H4.58513V12.1739H10.6721C12.2864 12.1739 13.8347 11.5326 14.9762 10.3911C16.1177 9.24956 16.759 7.70132 16.759 6.08696C16.759 4.4726 16.1177 2.92435 14.9762 1.78283C13.8347 0.641303 12.2864 0 10.6721 0ZM10.6721 11.3043H4.58513V0.869565H10.6721C12.0558 0.869565 13.3829 1.41925 14.3613 2.3977C15.3398 3.37615 15.8895 4.70322 15.8895 6.08696C15.8895 7.47069 15.3398 8.79776 14.3613 9.77621C13.3829 10.7547 12.0558 11.3043 10.6721 11.3043Z"/>
</mask>
<path d="M10.6721 0H4.15035C4.03504 0 3.92445 0.0458074 3.84291 0.127345C3.76137 0.208883 3.71557 0.319471 3.71557 0.434783V11.3043H0.672087C0.556776 11.3043 0.446187 11.3502 0.36465 11.4317C0.283112 11.5132 0.237305 11.6238 0.237305 11.7391C0.237305 11.8544 0.283112 11.965 0.36465 12.0466C0.446187 12.1281 0.556776 12.1739 0.672087 12.1739H3.71557V14.7826H0.672087C0.556776 14.7826 0.446187 14.8284 0.36465 14.91C0.283112 14.9915 0.237305 15.1021 0.237305 15.2174C0.237305 15.3327 0.283112 15.4433 0.36465 15.5248C0.446187 15.6064 0.556776 15.6522 0.672087 15.6522H3.71557V19.5652C3.71557 19.6805 3.76137 19.7911 3.84291 19.8727C3.92445 19.9542 4.03504 20 4.15035 20C4.26566 20 4.37625 19.9542 4.45779 19.8727C4.53932 19.7911 4.58513 19.6805 4.58513 19.5652V15.6522H10.2373C10.3526 15.6522 10.4632 15.6064 10.5447 15.5248C10.6263 15.4433 10.6721 15.3327 10.6721 15.2174C10.6721 15.1021 10.6263 14.9915 10.5447 14.91C10.4632 14.8284 10.3526 14.7826 10.2373 14.7826H4.58513V12.1739H10.6721C12.2864 12.1739 13.8347 11.5326 14.9762 10.3911C16.1177 9.24956 16.759 7.70132 16.759 6.08696C16.759 4.4726 16.1177 2.92435 14.9762 1.78283C13.8347 0.641303 12.2864 0 10.6721 0ZM10.6721 11.3043H4.58513V0.869565H10.6721C12.0558 0.869565 13.3829 1.41925 14.3613 2.3977C15.3398 3.37615 15.8895 4.70322 15.8895 6.08696C15.8895 7.47069 15.3398 8.79776 14.3613 9.77621C13.3829 10.7547 12.0558 11.3043 10.6721 11.3043Z" fill="black"/>
<path d="M3.71557 11.3043V18.3043H10.7156V11.3043H3.71557ZM3.71557 12.1739H10.7156V5.17391H3.71557V12.1739ZM3.71557 14.7826V21.7826H10.7156V14.7826H3.71557ZM3.71557 15.6522H10.7156V8.65217H3.71557V15.6522ZM4.58513 15.6522V8.65217H-2.41487V15.6522H4.58513ZM4.58513 14.7826H-2.41487V21.7826H4.58513V14.7826ZM4.58513 12.1739V5.17391H-2.41487V12.1739H4.58513ZM10.6721 12.1739V5.17391V12.1739ZM16.759 6.08696H23.759H16.759ZM4.58513 11.3043H-2.41487V18.3043H4.58513V11.3043ZM4.58513 0.869565V-6.13043H-2.41487V0.869565H4.58513ZM10.6721 -7H4.15035V7H10.6721V-7ZM4.15035 -7C2.17852 -7 0.287457 -6.2167 -1.10684 -4.8224L8.79266 5.07709C7.56144 6.30831 5.89155 7 4.15035 7V-7ZM-1.10684 -4.8224C-2.50114 -3.4281 -3.28443 -1.53703 -3.28443 0.434783H10.7156C10.7156 2.17597 10.0239 3.84586 8.79266 5.07709L-1.10684 -4.8224ZM-3.28443 0.434783V11.3043H10.7156V0.434783H-3.28443ZM3.71557 4.30435H0.672087V18.3043H3.71557V4.30435ZM0.672087 4.30435C-1.29971 4.30435 -3.19078 5.08763 -4.5851 6.48194L5.3144 16.3814C4.08316 17.6127 2.41326 18.3043 0.672087 18.3043V4.30435ZM-4.5851 6.48194C-5.9794 7.87624 -6.7627 9.76731 -6.7627 11.7391H7.2373C7.2373 13.4803 6.54562 15.1502 5.3144 16.3814L-4.5851 6.48194ZM-6.7627 11.7391C-6.7627 13.7109 -5.9794 15.602 -4.5851 16.9963L5.3144 7.09682C6.54562 8.32804 7.2373 9.99793 7.2373 11.7391H-6.7627ZM-4.5851 16.9963C-3.19078 18.3906 -1.29971 19.1739 0.672087 19.1739V5.17391C2.41326 5.17391 4.08316 5.86558 5.3144 7.09682L-4.5851 16.9963ZM0.672087 19.1739H3.71557V5.17391H0.672087V19.1739ZM-3.28443 12.1739V14.7826H10.7156V12.1739H-3.28443ZM3.71557 7.78261H0.672087V21.7826H3.71557V7.78261ZM0.672087 7.78261C-1.29971 7.78261 -3.19078 8.56589 -4.5851 9.96021L5.3144 19.8597C4.08316 21.0909 2.41326 21.7826 0.672087 21.7826V7.78261ZM-4.5851 9.96021C-5.9794 11.3545 -6.7627 13.2456 -6.7627 15.2174H7.2373C7.2373 16.9586 6.54562 18.6285 5.3144 19.8597L-4.5851 9.96021ZM-6.7627 15.2174C-6.7627 17.1892 -5.97938 19.0803 -4.5851 20.4746L5.3144 10.5751C6.54561 11.8063 7.2373 13.4762 7.2373 15.2174H-6.7627ZM-4.5851 20.4746C-3.19082 21.8689 -1.29976 22.6522 0.672087 22.6522V8.65217C2.41331 8.65217 4.08319 9.34388 5.3144 10.5751L-4.5851 20.4746ZM0.672087 22.6522H3.71557V8.65217H0.672087V22.6522ZM-3.28443 15.6522V19.5652H10.7156V15.6522H-3.28443ZM-3.28443 19.5652C-3.28443 21.537 -2.50115 23.4281 -1.10684 24.8224L8.79266 14.9229C10.0239 16.1541 10.7156 17.824 10.7156 19.5652H-3.28443ZM-1.10684 24.8224C0.287481 26.2167 2.17856 27 4.15035 27V13C5.89152 13 7.56141 13.6917 8.79266 14.9229L-1.10684 24.8224ZM4.15035 27C6.12214 27 8.01322 26.2167 9.40753 24.8224L-0.491961 14.9229C0.739282 13.6917 2.40918 13 4.15035 13V27ZM9.40753 24.8224C10.8018 23.4281 11.5851 21.537 11.5851 19.5652H-2.41487C-2.41487 17.824 -1.72319 16.1541 -0.491961 14.9229L9.40753 24.8224ZM11.5851 19.5652V15.6522H-2.41487V19.5652H11.5851ZM4.58513 22.6522H10.2373V8.65217H4.58513V22.6522ZM10.2373 22.6522C12.2091 22.6522 14.1002 21.8689 15.4945 20.4746L5.595 10.5751C6.82621 9.34387 8.49609 8.65217 10.2373 8.65217V22.6522ZM15.4945 20.4746C16.8888 19.0803 17.6721 17.1892 17.6721 15.2174H3.67209C3.67209 13.4762 4.36376 11.8063 5.595 10.5751L15.4945 20.4746ZM17.6721 15.2174C17.6721 13.2456 16.8888 11.3545 15.4945 9.96021L5.595 19.8597C4.36375 18.6285 3.67209 16.9586 3.67209 15.2174H17.6721ZM15.4945 9.96021C14.1002 8.56588 12.2091 7.78261 10.2373 7.78261V21.7826C8.49614 21.7826 6.82624 21.0909 5.595 19.8597L15.4945 9.96021ZM10.2373 7.78261H4.58513V21.7826H10.2373V7.78261ZM11.5851 14.7826V12.1739H-2.41487V14.7826H11.5851ZM4.58513 19.1739H10.6721V5.17391H4.58513V19.1739ZM10.6721 19.1739C14.143 19.1739 17.4717 17.7951 19.926 15.3408L10.0265 5.44134C10.1977 5.27011 10.4299 5.17391 10.6721 5.17391L10.6721 19.1739ZM19.926 15.3408C22.3802 12.8866 23.759 9.55784 23.759 6.08696L9.75904 6.08696C9.75904 5.8448 9.85524 5.61256 10.0265 5.44134L19.926 15.3408ZM23.759 6.08696C23.759 2.61607 22.3802 -0.712642 19.926 -3.16692L10.0265 6.73258C9.85524 6.56135 9.75904 6.32911 9.75904 6.08696L23.759 6.08696ZM19.926 -3.16692C17.4717 -5.6212 14.143 -7 10.6721 -7L10.6721 7C10.4299 7 10.1977 6.9038 10.0265 6.73258L19.926 -3.16692ZM10.6721 4.30435H4.58513V18.3043H10.6721V4.30435ZM11.5851 11.3043V0.869565H-2.41487V11.3043H11.5851ZM4.58513 7.86957H10.6721V-6.13043H4.58513V7.86957ZM10.6721 7.86957C10.1993 7.86957 9.7459 7.68176 9.41159 7.34745L19.3111 -2.55204C17.0199 -4.84325 13.9123 -6.13043 10.6721 -6.13043L10.6721 7.86957ZM9.41159 7.34745C9.07729 7.01315 8.88948 6.55973 8.88948 6.08696H22.8895C22.8895 2.8467 21.6023 -0.260837 19.3111 -2.55204L9.41159 7.34745ZM8.88948 6.08696C8.88948 5.61418 9.07729 5.16077 9.41159 4.82646L19.3111 14.726C21.6023 12.4347 22.8895 9.32721 22.8895 6.08696H8.88948ZM9.41159 4.82646C9.7459 4.49216 10.1993 4.30435 10.6721 4.30435V18.3043C13.9123 18.3043 17.0199 17.0172 19.3111 14.726L9.41159 4.82646Z" fill="white" mask="url(#path-1-inside-1_89_10484)"/>
</svg>
