<svg width="33" height="29" viewBox="0 0 33 29" fill="none" xmlns="http://www.w3.org/2000/svg">
<path d="M29.8953 0.00296928C29.4966 0.0319779 29.1052 0.125519 28.7365 0.279943H28.7315C28.3776 0.420293 26.6946 1.12825 24.136 2.20137L14.9673 6.06286C8.38824 8.8326 1.92097 11.5601 1.92097 11.5601L1.99798 11.5303C1.99798 11.5303 1.55208 11.6769 1.08632 11.9961C0.798577 12.1792 0.550972 12.4187 0.358489 12.7003C0.129955 13.0356 -0.0538665 13.5486 0.0144454 14.079C0.126229 14.9757 0.707501 15.5135 1.12482 15.8103C1.54712 16.1109 1.94954 16.2513 1.94954 16.2513H1.95947L8.02433 18.2944C8.29634 19.1676 9.87248 24.3493 10.2513 25.5429C10.4749 26.2559 10.6922 26.7018 10.9642 27.0421C11.0959 27.216 11.2499 27.3613 11.435 27.478C11.5312 27.534 11.6337 27.5782 11.7405 27.6097L11.6784 27.5948C11.697 27.5997 11.7119 27.6147 11.7256 27.6196C11.7753 27.6333 11.8088 27.6383 11.8722 27.6482C12.8322 27.9388 13.6035 27.3426 13.6035 27.3426L13.647 27.3079L17.2278 24.0475L23.2293 28.6518L23.3659 28.7101C24.6167 29.2591 25.8836 28.9536 26.553 28.4145C27.2274 27.8718 27.4895 27.1775 27.4895 27.1775L27.533 27.0657L32.1707 3.30678C32.3024 2.72054 32.3359 2.17156 32.1906 1.63873C32.0407 1.09947 31.6948 0.635671 31.2206 0.338318C30.8224 0.0962645 30.3607 -0.0205691 29.8953 0.00296928ZM29.7699 2.54914C29.7649 2.62739 29.7798 2.6187 29.745 2.76898V2.78264L25.1507 26.2944C25.1309 26.3279 25.0973 26.4012 25.0054 26.4745C24.9086 26.5515 24.8315 26.5999 24.4279 26.4397L17.0875 20.812L12.6534 24.8536L13.5849 18.9043L25.578 7.72594C26.0723 7.26639 25.9071 7.16951 25.9071 7.16951C25.9419 6.60563 25.1607 7.00432 25.1607 7.00432L10.0377 16.373L10.0327 16.3482L2.78418 13.9076V13.9026L2.76555 13.8989C2.77826 13.8946 2.7907 13.8897 2.80281 13.884L2.84256 13.8641L2.88106 13.8504C2.88106 13.8504 9.35331 11.1229 15.9324 8.35317C19.2262 6.96582 22.545 5.56853 25.0973 4.49044C26.6111 3.85328 28.1264 3.21984 29.6432 2.59013C29.745 2.55038 29.6966 2.54914 29.7699 2.54914Z" fill="black"/>
</svg>
