<?xml version="1.0" encoding="utf-8"?>
<!-- Generator: Adobe Illustrator 21.0.0, SVG Export Plug-In . SVG Version: 6.00 Build 0)  -->
<svg version="1.1" id="Слой_1" xmlns="http://www.w3.org/2000/svg" xmlns:xlink="http://www.w3.org/1999/xlink" x="0px" y="0px"
	 viewBox="0 0 33 35" style="enable-background:new 0 0 33 35;" xml:space="preserve">
<path d="M33,17.5c0-2.9-0.7-5.8-2-8.3c-1.3-2.6-3.2-4.7-5.5-6.3c-2.3-1.6-4.9-2.5-7.7-2.8c-2.7-0.2-5.5,0.3-8,1.4
	c-2.5,1.2-4.7,3-6.4,5.3c-1.7,2.3-2.8,5-3.2,7.9c-0.4,2.9-0.2,5.8,0.7,8.6c0.9,2.7,2.4,5.2,4.5,7.2c0,0.1,0.1,0.1,0.1,0.1
	c3,2.9,6.9,4.4,11,4.4c4,0,7.9-1.6,11-4.4l0.1-0.1c1.7-1.6,3.1-3.6,4-5.9C32.5,22.3,33,19.9,33,17.5z M1.3,17.5
	c0-2.6,0.6-5.2,1.8-7.6C4.3,7.6,6,5.6,8.1,4.1c2.1-1.5,4.5-2.4,6.9-2.6c2.5-0.3,5,0.1,7.3,1.1c2.3,1,4.3,2.6,5.9,4.6
	c1.6,2,2.7,4.5,3.2,7.1c0.5,2.6,0.4,5.3-0.3,7.8c-0.7,2.5-2,4.8-3.8,6.7c-1.6-2.9-4.3-5-7.3-6c1.4-0.8,2.6-2.1,3.2-3.7
	c0.7-1.6,0.8-3.3,0.4-5c-0.4-1.7-1.3-3.1-2.6-4.2c-1.3-1.1-2.8-1.6-4.5-1.6S13.3,9,12,10c-1.3,1.1-2.2,2.5-2.6,4.2
	c-0.4,1.7-0.2,3.4,0.4,5c0.7,1.6,1.8,2.9,3.2,3.7c-3.1,0.9-5.7,3.1-7.3,6C2.9,25.8,1.3,21.8,1.3,17.5z M16.5,22.4
	c-1.2,0-2.3-0.4-3.3-1.1c-1-0.7-1.7-1.7-2.2-2.8c-0.4-1.2-0.6-2.4-0.3-3.6c0.2-1.2,0.8-2.3,1.6-3.2s1.9-1.5,3-1.7
	c1.2-0.2,2.3-0.1,3.4,0.4s2,1.3,2.7,2.3c0.7,1,1,2.3,1,3.5c0,1.7-0.6,3.3-1.7,4.5C19.6,21.7,18.1,22.4,16.5,22.4z M6.7,29.8
	c1-1.8,2.4-3.3,4.1-4.4c1.7-1.1,3.7-1.6,5.6-1.6c2,0,3.9,0.6,5.6,1.6c1.7,1.1,3.1,2.6,4.1,4.4c-2.7,2.4-6.2,3.8-9.8,3.8
	S9.5,32.3,6.7,29.8z"/>
</svg>
