<svg width="121" height="39" viewBox="0 0 121 39" fill="none" xmlns="http://www.w3.org/2000/svg">
<path d="M111.683 38.4371L110.552 32.7831H97.917L95.9067 38.3969L85.7798 38.417C90.6009 26.8232 95.4323 15.2338 100.274 3.64871C101.098 1.68363 102.561 0.683507 104.717 0.693558C106.365 0.708636 109.054 0.708633 112.788 0.698581L120.618 38.422L111.683 38.4371ZM100.762 25.0384H108.903L105.863 10.8657L100.762 25.0384ZM35.4819 0.688531L45.6641 0.698581L29.9234 38.4421L19.6156 38.432C17.0235 28.4625 14.4637 18.4846 11.9362 8.49857C11.4336 6.50837 10.4385 5.11623 8.5237 4.45786C5.69532 3.51012 2.85381 2.60204 0 1.73389L0 0.703609H16.2684C19.0828 0.703609 20.7263 2.06559 21.254 4.85992C21.7867 7.65927 23.1236 14.7858 25.2746 26.2395L35.4819 0.688531ZM59.6559 0.698581L51.6046 38.432L41.9149 38.422L49.9561 0.688531L59.6559 0.698581ZM79.3066 0C82.2065 0 85.8602 0.904639 87.961 1.73389L86.2623 9.55901C84.3625 8.79509 81.2365 7.76481 78.608 7.79999C74.7884 7.86533 72.4263 9.46855 72.4263 11.0064C72.4263 13.5093 76.5274 14.7707 80.749 17.5047C85.5687 20.6207 86.202 23.4201 86.1416 26.4607C86.0763 32.773 80.749 39 69.5114 39C64.3851 38.9246 62.5356 38.4924 58.3542 37.0098L60.1232 28.8429C64.3801 30.627 66.1843 31.1949 69.823 31.1949C73.1551 31.1949 76.0147 29.848 76.0399 27.501C76.06 25.8324 75.0347 25.0032 71.2955 22.9426C67.5564 20.877 62.3095 18.0174 62.3798 12.2779C62.4653 4.93028 69.4259 0 79.3116 0H79.3066Z" fill="black"/>
</svg>
