<svg width="28" height="29" viewBox="0 0 28 29" fill="none" xmlns="http://www.w3.org/2000/svg">
<path d="M23.9196 4.09456C22.6296 2.79154 21.0931 1.75841 19.3997 1.05543C17.7063 0.352454 15.8898 -0.00630368 14.0563 8.38166e-05C6.37387 8.38166e-05 0.112563 6.26139 0.112563 13.9438C0.112563 16.4061 0.759799 18.7981 1.96985 20.9086L0 28.1408L7.38693 26.1991C9.42714 27.3106 11.7206 27.9016 14.0563 27.9016C21.7387 27.9016 28 21.6403 28 13.9579C28 10.2292 26.5508 6.72571 23.9196 4.09456ZM14.0563 25.5378C11.9739 25.5378 9.93367 24.975 8.14673 23.9197L7.72462 23.6664L3.33467 24.8202L4.50251 20.5428L4.22111 20.1066C3.06417 18.2591 2.44985 16.1236 2.44824 13.9438C2.44824 7.55586 7.65427 2.34983 14.0422 2.34983C17.1377 2.34983 20.0503 3.55988 22.2312 5.75486C23.311 6.82978 24.1668 8.10835 24.7489 9.51646C25.331 10.9246 25.6278 12.4342 25.6221 13.9579C25.6503 20.3458 20.4442 25.5378 14.0563 25.5378ZM20.4161 16.8704C20.0643 16.7016 18.3477 15.8574 18.0382 15.7307C17.7146 15.6182 17.4894 15.5619 17.2502 15.8996C17.0111 16.2513 16.3497 17.0393 16.1528 17.2644C15.9558 17.5036 15.7447 17.5317 15.393 17.3488C15.0412 17.18 13.9156 16.8001 12.593 15.6182C11.5518 14.6895 10.8623 13.5498 10.6513 13.1981C10.4543 12.8463 10.6231 12.6634 10.806 12.4805C10.9608 12.3257 11.1578 12.0724 11.3266 11.8755C11.4955 11.6785 11.5658 11.5237 11.6784 11.2986C11.791 11.0594 11.7347 10.8624 11.6503 10.6936C11.5658 10.5247 10.8623 8.80812 10.5809 8.10461C10.2995 7.42923 10.004 7.51365 9.79296 7.49958H9.11759C8.87839 7.49958 8.51256 7.584 8.18894 7.93576C7.8794 8.28752 6.97889 9.13174 6.97889 10.8483C6.97889 12.5649 8.23116 14.2252 8.4 14.4503C8.56884 14.6895 10.8623 18.2071 14.3518 19.7126C15.1819 20.0785 15.8291 20.2895 16.3357 20.4443C17.1658 20.7116 17.9256 20.6694 18.5307 20.585C19.206 20.4865 20.599 19.7408 20.8804 18.9247C21.1759 18.1086 21.1759 17.4192 21.0774 17.2644C20.9789 17.1096 20.7678 17.0393 20.4161 16.8704Z" fill="black"/>
</svg>
