<svg width="46" height="46" viewBox="0 0 46 46" fill="none" xmlns="http://www.w3.org/2000/svg">
<path d="M42.9963 45.0547C44.1653 46.2236 45.9695 44.4194 44.8005 43.2759L35.2712 33.7211C38.6139 30.0225 40.4617 25.2129 40.4552 20.2276C40.4552 9.07192 31.3833 0 20.2276 0C9.07192 0 0 9.07192 0 20.2276C0 31.3833 9.07192 40.4552 20.2276 40.4552C25.2591 40.4552 29.9094 38.6001 33.467 35.5253L42.9963 45.0547ZM2.53861 20.2276C2.53861 10.4696 10.4924 2.54115 20.225 2.54115C29.9831 2.54115 37.9115 10.4696 37.9115 20.2276C37.9115 29.9856 29.9831 37.914 20.225 37.914C10.4924 37.914 2.53861 29.9856 2.53861 20.2276Z" fill="black"/>
<path d="M21 12V29" stroke="black"/>
<path d="M12 20H29" stroke="black"/>
</svg>
